<svg xmlns="http://www.w3.org/2000/svg" xmlns:xlink="http://www.w3.org/1999/xlink" width="1920" zoomAndPan="magnify" viewBox="0 0 1440 959.999988" height="1280" preserveAspectRatio="xMidYMid meet" version="1.0"><defs><clipPath id="1cb6d4813f"><path d="M 866.007812 0 L 1440 0 L 1440 960 L 866.007812 960 Z M 866.007812 0 " clip-rule="nonzero"/></clipPath><clipPath id="3ac3b84f9d"><path d="M 1767.648438 -209.46875 C 1269.683594 -209.46875 866.007812 194.207031 866.007812 692.171875 C 866.007812 1190.132812 1269.683594 1593.8125 1767.648438 1593.8125 C 2265.609375 1593.8125 2669.289062 1190.132812 2669.289062 692.171875 C 2669.289062 194.207031 2265.609375 -209.46875 1767.648438 -209.46875 Z M 1767.648438 -209.46875 " clip-rule="nonzero"/></clipPath><clipPath id="4d20bc3432"><path d="M 0 539.171875 L 852.789062 539.171875 L 852.789062 960 L 0 960 Z M 0 539.171875 " clip-rule="nonzero"/></clipPath><clipPath id="7af4198f82"><path d="M 179.148438 539.171875 C -192.894531 539.171875 -494.492188 840.769531 -494.492188 1212.8125 C -494.492188 1584.851562 -192.894531 1886.449219 179.148438 1886.449219 C 551.1875 1886.449219 852.789062 1584.851562 852.789062 1212.8125 C 852.789062 840.769531 551.1875 539.171875 179.148438 539.171875 Z M 179.148438 539.171875 " clip-rule="nonzero"/></clipPath><clipPath id="19cc4d78ff"><path d="M 0 0 L 912 0 L 912 960 L 0 960 Z M 0 0 " clip-rule="nonzero"/></clipPath><clipPath id="9ebe5d9c70"><path d="M 267.09375 -476.597656 L 911.339844 -39.554688 L 123.570312 1121.703125 L -520.679688 684.660156 Z M 267.09375 -476.597656 " clip-rule="nonzero"/></clipPath><clipPath id="28ab879c2f"><path d="M 1315 480 L 1440 480 L 1440 822 L 1315 822 Z M 1315 480 " clip-rule="nonzero"/></clipPath><clipPath id="7f6030b324"><path d="M 1486.496094 480 L 1657.351562 650.851562 L 1486.496094 821.707031 L 1315.644531 650.851562 Z M 1486.496094 480 " clip-rule="nonzero"/></clipPath><clipPath id="4dce8e17f0"><path d="M 1486.496094 480 L 1657.351562 650.851562 L 1486.496094 821.707031 L 1315.644531 650.851562 Z M 1486.496094 480 " clip-rule="nonzero"/></clipPath></defs><rect x="-144" width="1728" fill="#ffffff" y="-95.999999" height="1151.999986" fill-opacity="1"/><rect x="-144" width="1728" fill="#f5f5ef" y="-95.999999" height="1151.999986" fill-opacity="1"/><g clip-path="url(#1cb6d4813f)"><g clip-path="url(#3ac3b84f9d)"><path fill="#c8e4db" d="M 866.007812 -209.46875 L 2669.289062 -209.46875 L 2669.289062 1593.8125 L 866.007812 1593.8125 Z M 866.007812 -209.46875 " fill-opacity="1" fill-rule="nonzero"/></g></g><g clip-path="url(#4d20bc3432)"><g clip-path="url(#7af4198f82)"><path fill="#f1e281" d="M -494.492188 539.171875 L 852.789062 539.171875 L 852.789062 1886.449219 L -494.492188 1886.449219 Z M -494.492188 539.171875 " fill-opacity="1" fill-rule="nonzero"/></g></g><g clip-path="url(#19cc4d78ff)"><g clip-path="url(#9ebe5d9c70)"><path fill="#c8e4db" d="M 267.09375 -476.597656 L 911.339844 -39.554688 L 123.570312 1121.703125 L -520.679688 684.660156 Z M 267.09375 -476.597656 " fill-opacity="1" fill-rule="nonzero"/></g></g><g clip-path="url(#28ab879c2f)"><g clip-path="url(#7f6030b324)"><g clip-path="url(#4dce8e17f0)"><path fill="#f1e281" d="M 1486.496094 480 L 1657.351562 650.851562 L 1486.496094 821.707031 L 1315.644531 650.851562 Z M 1486.496094 480 " fill-opacity="1" fill-rule="nonzero"/></g></g></g></svg>